STARTFONT 2.1
FONT -gbdfed-Unknown-Medium-R-Normal--16-120-96-96-M-18-FontSpecific-0
SIZE 12 96 96
FONTBOUNDINGBOX 17 9 0 0
STARTPROPERTIES 10
FAMILY_NAME "Icons"
POINT_SIZE 120
PIXEL_SIZE 16
RESOLUTION_X 96
RESOLUTION_Y 96
FONT_ASCENT 9
FONT_DESCENT 1
AVERAGE_WIDTH 180
SPACING "P"
_GBDFED_INFO "Edited with gbdfed 1.6."
ENDPROPERTIES
CHARS 6
STARTCHAR offbtn
ENCODING 32
SWIDTH 1125 0
DWIDTH 18 0
BBX 17 9 0 0
BITMAP
555500
800080
0CEE00
928880
12CC00
928880
0C8800
800080
555500
ENDCHAR
STARTCHAR onbtn
ENCODING 33
SWIDTH 1125 0
DWIDTH 18 0
BBX 17 9 0 0
BITMAP
7FFF00
FFFF80
F9B780
F6B780
F69780
F6A780
F9B780
FFFF80
7FFF00
ENDCHAR
STARTCHAR io
ENCODING 34
SWIDTH 1125 0
DWIDTH 18 0
BBX 17 9 0 0
BITMAP
555500
808080
1C0800
889480
081400
889480
1C0800
808080
555500
ENDCHAR
STARTCHAR io_o
ENCODING 35
SWIDTH 1125 0
DWIDTH 18 0
BBX 17 9 0 0
BITMAP
557F00
80FF80
1C7780
88EB80
086B80
88EB80
1C7780
80FF80
557F00
ENDCHAR
STARTCHAR io_i
ENCODING 36
SWIDTH 1125 0
DWIDTH 18 0
BBX 17 9 0 0
BITMAP
7F5500
FF8080
E30800
F79480
F71400
F79480
E30800
FF8080
7F5500
ENDCHAR
STARTCHAR io_io
ENCODING 37
SWIDTH 1125 0
DWIDTH 18 0
BBX 17 9 0 0
BITMAP
7F7F00
FFFF80
E37780
F7EB80
F76B80
F7EB80
E37780
FFFF80
7F7F00
ENDCHAR
ENDFONT
